<?xml version="1.0" encoding="UTF-8"?>
<svg width="549px" height="384px" viewBox="0 0 549 384" version="1.1" xmlns="http://www.w3.org/2000/svg" xmlns:xlink="http://www.w3.org/1999/xlink">
    <title>Swirls</title>
    <g id="Selected" stroke="none" stroke-width="1" fill="none" fill-rule="evenodd">
        <g id="v2---Awards-CAE" transform="translate(-1371.000000, -163.000000)" stroke="#2969F2" stroke-width="0.8">
            <g id="Hero" transform="translate(0.000000, 163.000000)">
                <g id="Swirls" transform="translate(1839.208734, 104.983609) rotate(-124.000000) translate(-1839.208734, -104.983609) translate(1337.906014, -225.016391)">
                    <path d="M657.162792,372.895204 C633.472896,553.581938 467.792925,680.852687 287.104796,657.162792 C106.418062,633.472896 -20.8526874,467.792925 2.83720842,287.106191 C26.5271043,106.418061 192.20847,-20.8526882 372.895204,2.83720769 C553.581938,26.5284989 680.852687,192.20847 657.162792,372.895204 Z" id="Stroke-1"></path>
                    <path d="M289.023546,654.667269 C112.323243,628.469101 -6.8005253,461.718737 22.9545877,282.218041 C52.7083045,102.71874 220.073834,-21.5579483 396.774137,4.64021978 C573.47444,30.8369928 692.598208,197.588751 662.843095,377.088052 C633.089378,556.588749 465.723848,680.865437 289.023546,654.667269 Z" id="Stroke-3"></path>
                    <path d="M289.629311,652.373019 C117.157564,623.67539 6.34445286,455.891658 42.1214447,277.61665 C77.8970414,99.340247 246.716452,-21.9159848 419.189593,6.7816441 C591.66134,35.479273 702.474451,203.264399 666.69746,381.539408 C630.920468,559.814416 462.101057,681.070648 289.629311,652.373019 Z" id="Stroke-5"></path>
                    <path d="M291.09968,649.952596 C122.568377,618.716716 19.8801085,449.677039 61.7396006,272.39367 C103.600489,95.1089048 274.156485,-23.2865541 442.687788,7.95072202 C611.220488,39.1866026 713.90736,208.226279 672.047868,385.509648 C630.188375,562.794413 459.630983,681.188477 291.09968,649.952596 Z" id="Stroke-7"></path>
                    <path d="M293.098318,647.248634 C128.768422,613.528014 34.3654584,443.531969 82.2458221,267.55004 C130.126186,91.5681116 302.157519,-23.758809 466.487415,9.96181155 C630.81731,43.6824321 725.218878,213.678477 677.33991,389.660406 C629.459547,565.642334 457.428213,680.969255 293.098318,647.248634 Z" id="Stroke-9"></path>
                    <path d="M293.591509,644.541042 C133.463938,608.293861 47.3404087,437.115378 101.230366,262.204071 C155.120324,87.2913682 328.616844,-25.1188345 488.745809,11.1283469 C648.873379,47.3769233 734.996908,218.554011 681.105556,393.466714 C627.215598,568.378021 453.719079,680.788224 293.591509,644.541042 Z" id="Stroke-11"></path>
                    <path d="M294.760799,642.320482 C138.586796,603.553224 60.6107516,431.231046 120.596296,257.428552 C180.581841,83.6260578 355.812654,-25.841986 511.985262,12.9266672 C668.159265,51.6939253 746.135309,224.016103 686.149765,397.818597 C626.165616,571.621091 450.934802,681.08774 294.760799,642.320482 Z" id="Stroke-13"></path>
                    <path d="M296.684318,639.198288 C144.744836,597.918027 75.055476,424.491542 141.027364,251.839376 C206.999251,79.185815 383.650303,-27.3116217 535.589785,13.9672441 C687.527872,55.247505 757.218627,228.67399 691.246739,401.327551 C625.274851,573.979717 448.6238,680.478549 296.684318,639.198288 Z" id="Stroke-15"></path>
                    <path d="M297.878112,636.833533 C149.948917,593.051914 88.4395246,418.561471 160.493464,247.097761 C232.546008,75.6340512 410.876926,-27.8718383 558.804726,15.9097805 C706.733922,59.6913993 768.243314,234.181842 696.19077,405.645552 C624.136831,577.109262 445.807308,680.615151 297.878112,636.833533 Z" id="Stroke-17"></path>
                    <path d="M298.958214,634.184857 C155.077578,587.840399 101.770932,412.053721 179.893631,241.55342 C258.014935,71.053119 437.983656,-29.5960813 581.864291,16.746981 C725.744926,63.0914396 779.051573,238.878117 700.930269,409.378418 C622.807569,579.880116 442.838849,680.529316 298.958214,634.184857 Z" id="Stroke-19"></path>
                    <path d="M300.209533,631.675006 C160.418915,582.851495 115.331155,406.083931 199.502789,236.852255 C283.675819,67.6205792 465.23266,-29.9887701 605.023277,18.8347408 C744.813894,67.6582516 789.901654,244.425815 705.728625,413.657492 C621.556991,582.889168 440.00015,680.498517 300.209533,631.675006 Z" id="Stroke-21"></path>
                    <path d="M302.203389,629.437657 C166.543812,578.070624 129.687804,400.086288 219.881499,231.899844 C310.076589,63.7134001 493.166512,-30.987457 628.826089,20.3795768 C764.485667,71.7466106 801.34307,249.730946 711.14798,417.91739 C620.954284,586.103834 437.862966,680.804691 302.203389,629.437657 Z" id="Stroke-23"></path>
                    <path d="M303.564613,626.784183 C172.075532,572.966847 143.454392,394.09166 239.637653,227.253039 C335.820913,60.4144176 520.385852,-31.2068251 651.874933,22.6105106 C783.364013,76.426452 811.985153,255.303033 715.801892,422.141654 C619.618632,588.978881 435.053693,680.601518 303.564613,626.784183 Z" id="Stroke-25"></path>
                    <path d="M304.268551,624.255717 C176.769241,567.920675 156.346409,387.915183 258.651746,222.202636 C360.957083,56.4900891 547.252099,-32.178054 674.751409,24.156988 C802.250719,80.4920301 822.67355,260.497523 720.368213,426.21007 C618.061481,591.922616 431.767861,680.590759 304.268551,624.255717 Z" id="Stroke-27"></path>
                    <path d="M305.295462,621.239452 C181.830055,562.400459 169.620756,381.30989 278.025932,216.762339 C386.431109,52.2147894 574.398475,-33.4773279 697.863882,25.3630588 C821.329289,84.2020512 833.538588,265.292621 725.134808,429.840171 C616.729631,594.386327 428.760869,680.078444 305.295462,621.239452 Z" id="Stroke-29"></path>
                    <path d="M306.504569,619.312396 C187.110364,557.886896 183.123575,375.468562 297.60237,211.869195 C412.079768,48.2698282 601.670783,-34.5587558 721.064988,26.8667434 C840.459193,88.2922426 844.444585,270.710577 729.967187,434.309944 C615.489789,597.909311 425.898774,680.737895 306.504569,619.312396 Z" id="Stroke-31"></path>
                    <path d="M308.45491,616.708872 C193.161066,552.808908 197.400437,369.395083 317.925071,207.041737 C438.448309,44.6897861 629.616552,-35.1223853 744.911792,28.7775789 C860.205635,92.6789383 855.966265,276.092764 735.44163,438.444714 C614.916996,600.79806 423.748753,680.608836 308.45491,616.708872 Z" id="Stroke-33"></path>
                    <path d="M309.75532,614.631686 C198.582184,548.170408 211.043337,363.516341 337.589787,202.193951 C464.136237,40.8715601 656.847135,-36.0290063 768.02027,30.4322723 C879.194802,96.8921547 866.732253,281.547617 740.185803,442.870008 C613.639353,604.192398 420.928455,681.092965 309.75532,614.631686 Z" id="Stroke-35"></path>
                    <path d="M310.955211,611.326949 C203.914123,542.428468 224.592182,356.872696 357.141374,196.874756 C489.691961,36.8782106 683.918066,-36.9725709 790.96055,31.9259101 C898.001638,100.824391 877.323579,286.381557 744.774388,446.378103 C612.2238,606.376043 417.9963,680.225429 310.955211,611.326949 Z" id="Stroke-37"></path>
                    <path d="M312.312539,609.10509 C209.406681,537.679658 238.292805,350.973936 376.833764,192.087084 C515.374722,33.2002311 711.106216,-37.7007113 814.012074,33.7261155 C916.919326,105.151547 888.031807,291.857269 749.490849,450.744122 C610.951286,609.62958 415.218396,680.530522 312.312539,609.10509 Z" id="Stroke-39"></path>
                    <path d="M313.955323,606.39577 C215.178831,532.459518 252.269518,344.653403 396.797558,186.916409 C541.325598,29.1808098 738.563438,-38.7533349 837.338536,35.182917 C936.115027,109.119169 899.02434,296.926678 754.4963,454.662277 C609.96826,612.397877 412.731814,680.332022 313.955323,606.39577 Z" id="Stroke-41"></path>
                    <path d="M315.160919,603.6163 C220.357078,527.189731 265.717106,338.327262 416.47508,181.780178 C567.231658,25.2330949 766.298363,-39.7156145 861.102203,36.7109553 C955.904648,113.137525 910.546016,301.999994 759.788042,458.545683 C609.030068,615.092766 409.96476,680.04287 315.160919,603.6163 Z" id="Stroke-43"></path>
                    <path d="M315.770522,601.762985 C225.078821,522.742301 278.653509,332.572258 435.431359,177.00587 C592.209209,21.4408776 792.822544,-40.6095115 883.512848,38.4111726 C974.204548,117.433253 920.631256,307.603296 763.853407,463.168288 C607.075557,618.73328 406.462222,680.783669 315.770522,601.762985 Z" id="Stroke-45"></path>
                    <path d="M317.57539,598.428669 C230.976027,516.956566 292.773886,325.827003 455.605034,171.527962 C618.434787,17.2303167 820.636769,-41.8073176 907.236133,39.6647852 C993.835496,121.135493 932.037636,312.266452 769.207884,466.564097 C606.376736,620.863138 404.174753,679.900772 317.57539,598.428669 Z" id="Stroke-47"></path>
                    <path d="M318.043887,596.431961 C235.514781,512.401811 305.556445,320.056766 474.483906,166.819076 C643.412765,13.5813852 847.259824,-42.5215206 929.78893,41.5086302 C1012.31804,125.538781 942.276372,317.88243 773.347514,471.121516 C604.420052,624.359206 400.572993,680.462112 318.043887,596.431961 Z" id="Stroke-49"></path>
                    <path d="M320.24926,594.094046 C241.880523,507.523278 320.081838,314.012559 494.916211,161.873992 C669.750584,9.73682182 875.01247,-43.4162592 953.381207,43.1531133 C1031.74994,129.723882 953.548629,323.234601 778.714256,475.373167 C603.879883,627.511734 398.617997,680.664815 320.24926,594.094046 Z" id="Stroke-51"></path>
                    <path d="M321.225932,591.54348 C246.979597,502.453873 333.363237,307.821827 514.170455,156.821546 C694.977673,5.82126498 901.738614,-44.366504 975.984949,44.7231032 C1050.23129,133.812711 963.847644,328.443361 783.040426,479.443642 C602.233208,630.443923 395.472268,680.633088 321.225932,591.54348 Z" id="Stroke-53"></path>
                </g>
            </g>
        </g>
    </g>
</svg>