<svg width="16px" height="16px" viewBox="0 0 16 16" version="1.1" xmlns="http://www.w3.org/2000/svg" xmlns:xlink="http://www.w3.org/1999/xlink">
    <!-- Generator: Sketch 45.1 (43504) - http://www.bohemiancoding.com/sketch -->
    <desc>Created with Sketch.</desc>
    <defs>
        <polygon id="path-1" points="5.99251022e-06 15.9937079 15.9936539 15.9937079 15.9936539 2.39700379e-05 5.99251022e-06 2.39700379e-05"></polygon>
    </defs>
    <g id="Symbols" stroke="none" stroke-width="1" fill="none" fill-rule="evenodd">
        <g id="Footer" transform="translate(-260.000000, -294.000000)">
            <g id="Follow-Us">
                <g transform="translate(175.000000, 237.000000)">
                    <g id="Facebook" transform="translate(85.000000, 57.000000)">
                        <mask id="mask-2" fill="white">
                            <use xlink:href="#path-1"></use>
                        </mask>
                        <g id="Clip-2"></g>
                        <path d="M15.1109573,2.39700379e-05 L0.882702622,2.39700379e-05 C0.39515206,2.39700379e-05 5.99251022e-06,0.395170037 5.99251022e-06,0.882720599 L5.99251022e-06,15.1109753 C5.99251022e-06,15.5984659 0.39515206,15.9937318 0.882702622,15.9937318 L8.54274757,15.9937318 L8.54274757,9.80011386 L6.45843296,9.80011386 L6.45843296,7.38633109 L8.54274757,7.38633109 L8.54274757,5.60625618 C8.54274757,3.54051835 9.80441049,2.41566442 11.647227,2.41566442 C12.5299835,2.41566442 13.2886352,2.48134232 13.5096989,2.51070562 L13.5096989,4.66956704 L12.2316165,4.67016629 C11.2294292,4.67016629 11.0353318,5.14639101 11.0353318,5.84523745 L11.0353318,7.38633109 L13.425564,7.38633109 L13.114373,9.80011386 L11.0353318,9.80011386 L11.0353318,15.9937318 L15.1109573,15.9937318 C15.5984479,15.9937318 15.9936539,15.5984659 15.9936539,15.1109753 L15.9936539,0.882720599 C15.9936539,0.395170037 15.5984479,2.39700379e-05 15.1109573,2.39700379e-05" id="Fill-1" fill="#2969F2" mask="url(#mask-2)"></path>
                    </g>
                </g>
            </g>
        </g>
    </g>
</svg>