<svg width="16px" height="16px" viewBox="0 0 16 16" version="1.1" xmlns="http://www.w3.org/2000/svg" xmlns:xlink="http://www.w3.org/1999/xlink">
    <!-- Generator: Sketch 45.1 (43504) - http://www.bohemiancoding.com/sketch -->
    <desc>Created with Sketch.</desc>
    <defs>
        <polygon id="path-1" points="0 15.8275077 0 -0.000184615384 7.92818462 -0.000184615384 15.8563692 -0.000184615384 15.8563692 15.8275077 7.92818462 15.8275077"></polygon>
    </defs>
    <g id="Symbols" stroke="none" stroke-width="1" fill="none" fill-rule="evenodd">
        <g id="Footer" transform="translate(-221.000000, -293.000000)">
            <g id="Follow-Us">
                <g transform="translate(175.000000, 237.000000)">
                    <g id="Linkedin" transform="translate(46.000000, 56.000000)">
                        <mask id="mask-2" fill="white">
                            <use xlink:href="#path-1"></use>
                        </mask>
                        <g id="Clip-2"></g>
                        <path d="M15.8563692,15.8275077 L12.5708308,15.8275077 L12.5708308,10.6865846 C12.5708308,9.46012308 12.5499077,7.88289231 10.8637538,7.88289231 C9.1536,7.88289231 8.89329231,9.21950769 8.89329231,10.5985846 L8.89329231,15.8275077 L5.61144615,15.8275077 L5.61144615,5.2552 L8.76098462,5.2552 L8.76098462,6.70073846 L8.80590769,6.70073846 C9.24406154,5.86935385 10.3160615,4.99304615 11.9148308,4.99304615 C15.2416,4.99304615 15.8563692,7.18196923 15.8563692,10.0293538 L15.8563692,15.8275077 Z M1.90621538,3.81089231 C0.850830769,3.81089231 -0.000246153847,2.95735385 -0.000246153847,1.90504615 C-0.000246153847,0.853353846 0.850830769,-0.000184615384 1.90621538,-0.000184615384 C2.95729231,-0.000184615384 3.81083077,0.853353846 3.81083077,1.90504615 C3.81083077,2.95735385 2.95729231,3.81089231 1.90621538,3.81089231 L1.90621538,3.81089231 Z M0.260676923,15.8275077 L3.54990769,15.8275077 L3.54990769,5.2552 L0.260676923,5.2552 L0.260676923,15.8275077 Z" id="Fill-1" fill="#2969F2" mask="url(#mask-2)"></path>
                    </g>
                </g>
            </g>
        </g>
    </g>
</svg>