<svg width="18px" height="14px" viewBox="0 0 18 14" version="1.1" xmlns="http://www.w3.org/2000/svg" xmlns:xlink="http://www.w3.org/1999/xlink">
    <!-- Generator: Sketch 45.1 (43504) - http://www.bohemiancoding.com/sketch -->
    <desc>Created with Sketch.</desc>
    <defs></defs>
    <g id="Symbols" stroke="none" stroke-width="1" fill="none" fill-rule="evenodd">
        <g id="Footer" transform="translate(-181.000000, -295.000000)" fill="#2969F2">
            <g id="Follow-Us">
                <g transform="translate(175.000000, 237.000000)">
                    <path d="M11.660928,72 C18.453624,72 22.168248,66.6143086 22.168248,61.9442656 C22.168248,61.7912274 22.165008,61.6388782 22.157736,61.4873559 C22.878744,60.9885519 23.505504,60.3661322 24,59.6574432 C23.33832,59.9387138 22.626168,60.1283407 21.87924,60.2138519 C22.641648,59.7763734 23.22708,59.084015 23.503128,58.2588075 C22.789392,58.663625 21.999408,58.9581254 21.158232,59.1166071 C20.484312,58.4296922 19.524552,58 18.462552,58 C16.422936,58 14.769024,59.582819 14.769024,61.5340047 C14.769024,61.8114166 14.801496,62.0810422 14.864856,62.3398498 C11.795712,62.1921862 9.07404,60.7856953 7.252872,58.6472945 C6.935424,59.1694573 6.752688,59.7763734 6.752688,60.4236679 C6.752688,61.6498341 7.40472,62.7322643 8.396088,63.3655022 C7.790352,63.3476558 7.221192,63.1883472 6.723456,62.9233382 C6.722664,62.9381528 6.722664,62.9528984 6.722664,62.9684021 C6.722664,64.6802803 7.995768,66.1092343 9.685464,66.4332949 C9.375288,66.5140517 9.048912,66.5575997 8.711952,66.5575997 C8.473992,66.5575997 8.242584,66.5350678 8.017728,66.4938625 C8.487816,67.8980106 9.851064,68.9198043 11.46768,68.9486066 C10.203432,69.896603 8.611224,70.461487 6.880992,70.461487 C6.582984,70.461487 6.28908,70.4451565 6,70.4124954 C7.634472,71.4149268 9.575016,72 11.660928,72" id="Twitter"></path>
                </g>
            </g>
        </g>
    </g>
</svg>