<svg width="20px" height="15px" viewBox="0 0 20 15" version="1.1" xmlns="http://www.w3.org/2000/svg" xmlns:xlink="http://www.w3.org/1999/xlink">
    <!-- Generator: Sketch 45.1 (43504) - http://www.bohemiancoding.com/sketch -->
    <desc>Created with Sketch.</desc>
    <defs>
        <polygon id="path-1" points="19.9892172 7.49398331 19.9892172 14.9879624 0 14.9879624 0 7.49398331 0 4.17246189e-06 19.9892172 4.17246189e-06"></polygon>
    </defs>
    <g id="Symbols" stroke="none" stroke-width="1" fill="none" fill-rule="evenodd">
        <g id="Footer" transform="translate(-296.000000, -294.000000)">
            <g id="Follow-Us">
                <g transform="translate(175.000000, 237.000000)">
                    <g id="YT" transform="translate(121.000000, 57.000000)">
                        <mask id="mask-2" fill="white">
                            <use xlink:href="#path-1"></use>
                        </mask>
                        <g id="Clip-2"></g>
                        <path d="M7.9309589,10.2580848 L7.93003914,4.27060223 L13.3312133,7.27477469 L7.9309589,10.2580848 Z M19.7896086,3.2333491 C19.7896086,3.2333491 19.5942661,1.76487204 18.9949511,1.11820306 C18.2348337,0.26944089 17.382818,0.265247566 16.9920939,0.215553547 C14.1948924,4.17246189e-06 9.99894325,4.17246189e-06 9.99894325,4.17246189e-06 L9.9902544,4.17246189e-06 C9.9902544,4.17246189e-06 5.79440313,4.17246189e-06 2.99710372,0.215553547 C2.60636008,0.265247566 1.75465753,0.26944089 0.994266145,1.11820306 C0.394931507,1.76487204 0.199902153,3.2333491 0.199902153,3.2333491 C0.199902153,3.2333491 0,4.95780668 0,6.68228512 L0,8.29896801 C0,10.0234047 0.199902153,11.7478623 0.199902153,11.7478623 C0.199902153,11.7478623 0.394931507,13.2163602 0.994266145,13.8630292 C1.75465753,14.7117705 2.75348337,14.6849416 3.19835616,14.7738985 C4.79751468,14.9373755 9.9946184,14.9879666 9.9946184,14.9879666 C9.9946184,14.9879666 14.1948924,14.9812281 16.9920939,14.7656579 C17.382818,14.7159847 18.2348337,14.7117705 18.9949511,13.8630292 C19.5942661,13.2163602 19.7896086,11.7478623 19.7896086,11.7478623 C19.7896086,11.7478623 19.9892172,10.0234047 19.9892172,8.29896801 L19.9892172,6.68228512 C19.9892172,4.95780668 19.7896086,3.2333491 19.7896086,3.2333491 L19.7896086,3.2333491 Z" id="Fill-1" fill="#2969F2" mask="url(#mask-2)"></path>
                    </g>
                </g>
            </g>
        </g>
    </g>
</svg>